# xmcd
#
# Track frame offsets:
#	150
#	15585
#	31878
#	47347
#	62767
#	79535
#	95139
#	109587
#	125164
#	139656
#	156844
#	172814
#	188891
#	204908
#	220617
#	237066
#	258123
#	274418
#	291781
#	309402
#
# Disc length: 4328 seconds
# Revision: 0
# Processed by: cddbd v1.5.2PL0 Copyright (c) Steve Scherf et al.
# Submitted via: dBpowerAMP V12.0
#
DISCID=0b10e614
DTITLE=Roy Roberts - Anthology Of Soul And Blues
DYEAR=2012
DGENRE=Blues
TTITLE0=We Still Together
TTITLE1=I Truly Love You
TTITLE2=Strange Love
TTITLE3=Wait For Me
TTITLE4=My Love Bone
TTITLE5=Hey Baby
TTITLE6=Got To Watch My Step
TTITLE7=Looking Bad situation
TTITLE8=I'm Going Out Tonight
TTITLE9=It's Only You
TTITLE10=Singing Another Blues Song
TTITLE11=Picture Of Beauty
TTITLE12=Sicily Moon
TTITLE13=If You Can't Put It Out
TTITLE14=Turn That Thang Around
TTITLE15=Baby
TTITLE16=Soul On Fire
TTITLE17=I Want To Love You
TTITLE18=Daylight With A Flashlight
TTITLE19=The Rain Was Falling
EXTD=
EXTT0=
EXTT1=
EXTT2=
EXTT3=
EXTT4=
EXTT5=
EXTT6=
EXTT7=
EXTT8=
EXTT9=
EXTT10=
EXTT11=
EXTT12=
EXTT13=
EXTT14=
EXTT15=
EXTT16=
EXTT17=
EXTT18=
EXTT19=
PLAYORDER=
